<svg xmlns="http://www.w3.org/2000/svg" width="640" height="480" viewBox="80 0 640 480" xmlns:v="https://vecta.io/nano"><path d="M0 0h800v480H0z" fill="rgb(0%,0%,80.000001%)"/><g fill="none" stroke="rgb(100%,100%,100%)" stroke-width="16"><path d="M551.996 240.002c0-83.945-68.05-151.998-151.998-151.998s-151.998 68.054-151.998 151.998S316.053 392 399.997 392s151.998-68.054 151.998-151.998zm0 0"/><path d="M300.389 342.692c61.64-35.59 137.581-35.59 199.217 0m0-205.381c-61.636 35.59-137.577 35.59-199.217 0" stroke-linecap="square"/><path d="M399.654 391.743c-47.64-35.902-75.656-92.089-75.656-151.741s28.015-115.839 75.656-151.741m.344-.258V392"/><path d="M247.999 240.002h303.998M400.342 88.26c47.64 35.902 75.656 92.089 75.656 151.741a190.01 190.01 0 0 1-75.656 151.741"/></g></svg>